<svg xmlns="http://www.w3.org/2000/svg" width="320" height="320" viewBox="0 0 320 320">
  <rect width="320" height="320" fill="#fff"/>
  <rect x="20" y="20" width="84" height="84" fill="none" stroke="#173f63" stroke-width="14"/>
  <rect x="216" y="20" width="84" height="84" fill="none" stroke="#173f63" stroke-width="14"/>
  <rect x="20" y="216" width="84" height="84" fill="none" stroke="#173f63" stroke-width="14"/>
  <g fill="#173f63">
    <rect x="126" y="32" width="20" height="20"/><rect x="158" y="32" width="20" height="52"/><rect x="126" y="74" width="20" height="20"/>
    <rect x="126" y="126" width="52" height="20"/><rect x="200" y="126" width="20" height="52"/><rect x="242" y="126" width="42" height="20"/>
    <rect x="126" y="200" width="20" height="84"/><rect x="168" y="210" width="72" height="20"/><rect x="264" y="200" width="20" height="84"/><rect x="168" y="264" width="84" height="20"/>
  </g>
  <rect x="62" y="62" width="20" height="20" fill="#173f63"/><rect x="258" y="62" width="20" height="20" fill="#173f63"/><rect x="62" y="258" width="20" height="20" fill="#173f63"/>
  <text x="160" y="154" text-anchor="middle" font-family="Microsoft YaHei,Arial" font-size="18" font-weight="700" fill="#b8413b">付费二维码</text>
  <text x="160" y="180" text-anchor="middle" font-family="Microsoft YaHei,Arial" font-size="13" fill="#607080">请替换为真实收款码</text>
</svg>
